# xmcd CD database file generated by OrangeCD 4.3
#
# Track frame offsets:
#	150
#	13267
#	34039
#	51839
#	55384
#	95407
#	112378
#	117343
#	153690
#	168187
#	173650
#	198068
#	215983
#	221285
#	244259
#	261514
#	266399
#	278795
#	297429
#	329537
#
# Disc length: 4540 seconds
#
# Revision: 7
# Processed by: cddbd v1.4PL0 Copyright (c) Steve Scherf et al.
# Submitted via: OrangeCD 4.3
#
DISCID=3a11ba14
DTITLE=Adam Sandler - What The Hell Happened To Me?
DYEAR=1995
DGENRE=Comedy
TTITLE0=Joining The Cult
TTITLE1=Respect
TTITLE2=Ode To My Car
TTITLE3=The Excited Southerner Orders A Meal
TTITLE4=The Goat
TTITLE5=The Chanukah Song
TTITLE6=The Excited Southerner Gets Pulled Over
TTITLE7=The Hypnotist
TTITLE8=Steve Polychronopolous
TTITLE9=The Excited Southerner At A Job Interview
TTITLE10=Do It For Your Mama
TTITLE11=Crazy Love
TTITLE12=The Excited Southerner Meets Mel Gibson
TTITLE13=The Adventures Of The Cow
TTITLE14=Dip Doodle
TTITLE15=The Excited Southerner Proposes To A Woman
TTITLE16=Memory Lane
TTITLE17=Mr. Bake-o
TTITLE18=Sex Or Weight Lifting
TTITLE19=What The Hell Happened To Me?
EXTD=YEAR: 1995 ID3G: 57
EXTT0=
EXTT1=
EXTT2=
EXTT3=
EXTT4=
EXTT5=
EXTT6=
EXTT7=
EXTT8=
EXTT9=
EXTT10=
EXTT11=
EXTT12=
EXTT13=
EXTT14=
EXTT15=
EXTT16=
EXTT17=
EXTT18=
EXTT19=
PLAYORDER=
